{
.appVersion = "3151";
.formatVersion = 3;
DisplayStrings = (
abcdefjhijklmn,
noah,
k,
l,
m,
n,
g
);
axes = (
{
name = Weight;
tag = wght;
},
{
name = Italic;
tag = ital;
}
);
date = "2023-04-13 21:35:54 +0000";
familyName = NOAH;
fontMaster = (
{
axesValues = (
0,
0
);
id = m01;
metricValues = (
{
over = 16;
pos = 800;
},
{
over = 16;
pos = 700;
},
{
over = 16;
pos = 500;
},
{
over = -16;
},
{
over = -16;
pos = -200;
}
);
name = Regular;
userData = {
GSCornerRadius = 1.1;
GSOffsetHorizontal = -2;
GSOffsetKeepCompatible = 1;
GSOffsetVertical = -2;
};
visible = 1;
},
{
axesValues = (
50,
0
);
id = m002;
metricValues = (
{
over = 16;
pos = 800;
},
{
over = 16;
pos = 700;
},
{
over = 16;
pos = 500;
},
{
over = -16;
},
{
over = -16;
pos = -200;
}
);
name = thin;
userData = {
GSCornerRadius = 15;
GSOffsetHorizontal = 1;
GSOffsetKeepCompatible = 1;
GSOffsetVertical = 1;
};
visible = 1;
}
);
glyphs = (
{
glyphname = a;
lastChange = "2023-04-21 15:37:35 +0000";
layers = (
{
layerId = m01;
shapes = (
{
closed = 1;
nodes = (
(303,37,o),
(360,80,o),
(416,122,c),
(395,147,l),
(353,115,o),
(312,82,o),
(270,50,c),
(268,49,o),
(265,50,o),
(266,53,cs),
(413,485,ls),
(418,501,o),
(403,513,o),
(390,504,cs),
(299,443,o),
(207,381,o),
(116,320,c),
(133,295,l),
(211,347,o),
(288,399,o),
(366,451,c),
(368,453,o),
(371,451,o),
(370,448,cs),
(287,216,ls),
(287,216,o),
(286,215,o),
(286,215,cs),
(150,252,o),
(10,205,o),
(10,92,cs),
(10,52,o),
(36,16,o),
(60,2,cs),
(102,-22,o),
(159,-8,o),
(223,34,cs),
(225,35,o),
(228,35,o),
(227,32,cs),
(221,14,ls),
(215,-3,o),
(233,-16,o),
(247,-5,cs)
);
},
{
closed = 1;
nodes = (
(57,38,o),
(38,69,o),
(40,92,cs),
(49,202,o),
(193,209,o),
(277,187,cs),
(278,187,o),
(278,186,o),
(278,185,c),
(252,106,l),
(221,68,o),
(197,48,o),
(174,35,cs),
(137,15,o),
(101,13,o),
(76,28,cs)
);
}
);
width = 426;
},
{
background = {
shapes = (
{
attr = {
strokeWidth = 1;
};
closed = 0;
nodes = (
(97,315,l),
(186,374,o),
(273,434,o),
(362,492,c),
(305,329,o),
(250,165,o),
(194,1,c),
(247,41,o),
(300,82,o),
(353,122,c)
);
},
{
attr = {
strokeWidth = 1;
};
closed = 0;
nodes = (
(256,197,l),
(256,197,o),
(95,246,o),
(20,165,c),
(10,154,o),
(-15,128,o),
(-15,90,c),
(-15,56,o),
(7,26,o),
(29,12,c),
(76,-15,o),
(160,13,o),
(226,95,c)
);
}
);
};
guides = (
{
angle = 36.9241;
pos = (315,59);
},
{
angle = 33.8034;
pos = (233,373);
},
{
angle = 71.2077;
pos = (323,269);
},
{
pos = (105,310);
}
);
layerId = m002;
shapes = (
{
closed = 1;
nodes = (
(274,36,o),
(334,101,o),
(412,136,c),
(380,171,l),
(339,106,o),
(297,66,o),
(231,26,cs),
(226,23,o),
(221,22,o),
(224,31,cs),
(380,473,ls),
(386,489,o),
(372,505,o),
(360,493,cs),
(342,475,o),
(184,367,o),
(76,356,c),
(104,312,l),
(179,367,o),
(267,420,o),
(348,469,c),
(357,474,o),
(365,465,o),
(362,457,cs),
(285,240,ls),
(282,231,o),
(267,213,o),
(247,216,cs),
(128,237,o),
(-4,195,o),
(-4,92,cs),
(-4,52,o),
(20,24,o),
(45,12,cs),
(74,-2,o),
(127,-7,o),
(206,48,cs),
(211,52,o),
(218,50,o),
(215,42,cs),
(207,21,ls),
(203,11,o),
(212,-2,o),
(227,7,cs)
);
},
{
closed = 1;
nodes = (
(30,31,o),
(14,63,o),
(14,92,cs),
(14,191,o),
(154,242,o),
(244,198,cs),
(252,194,o),
(263,180,o),
(254,155,c),
(227,91,l),
(207,56,o),
(190,48,o),
(170,34,cs),
(124,2,o),
(74,6,o),
(49,21,cs)
);
}
);
width = 412;
}
);
unicode = 97;
},
{
glyphname = b;
lastChange = "2023-04-21 15:37:47 +0000";
layers = (
{
layerId = m01;
shapes = (
{
closed = 1;
nodes = (
(120,638,o),
(199,694,o),
(278,750,cs),
(281,752,o),
(284,750,o),
(283,746,c),
(186,502,o),
(89,258,o),
(-8,14,cs),
(-11,6,o),
(-6,0,o),
(1,-1,cs),
(42,-7,o),
(163,-20,o),
(265,53,cs),
(425,168,o),
(446,433,o),
(373,472,cs),
(343,488,o),
(288,475,o),
(160,339,cs),
(158,337,o),
(147,324,o),
(154,341,cs),
(325,777,ls),
(331,793,o),
(313,807,o),
(299,797,cs),
(207,734,o),
(116,670,o),
(24,607,c),
(41,582,l)
);
},
{
closed = 1;
nodes = (
(120,247,ls),
(136,286,o),
(327,472,o),
(359,446,cs),
(406,408,o),
(395,184,o),
(247,77,cs),
(169,21,o),
(78,21,o),
(29,26,cs),
(28,26,o),
(28,27,o),
(28,28,cs)
);
}
);
width = 600;
},
{
layerId = m002;
shapes = (
{
closed = 1;
nodes = (
(96,615,o),
(185,690,o),
(264,738,cs),
(282,749,o),
(292,730,o),
(285,711,cs),
(195,472,o),
(113,260,o),
(21,41,cs),
(16,29,o),
(22,12,o),
(37,10,cs),
(78,5,o),
(188,10,o),
(279,62,cs),
(443,155,o),
(457,408,o),
(394,458,cs),
(370,477,o),
(314,467,o),
(241,418,cs),
(211,398,o),
(188,423,o),
(202,460,cs),
(326,777,ls),
(331,790,o),
(319,796,o),
(309,788,cs),
(259,747,o),
(141,667,o),
(5,605,c),
(34,561,l)
);
},
{
closed = 1;
nodes = (
(141,286,ls),
(167,348,o),
(329,489,o),
(387,448,cs),
(430,418,o),
(416,156,o),
(273,74,cs),
(211,38,o),
(138,23,o),
(102,28,cs),
(77,32,o),
(48,64,o),
(65,105,cs)
);
}
);
width = 439;
}
);
unicode = 98;
},
{
glyphname = c;
lastChange = "2023-04-21 15:47:06 +0000";
layers = (
{
layerId = m01;
shapes = (
{
closed = 1;
nodes = (
(156,413,o),
(78,345,o),
(-1,277,c),
(18,254,l),
(51,282,o),
(83,311,o),
(116,339,cs),
(118,340,o),
(122,338,o),
(121,335,cs),
(113,319,ls),
(54,182,o),
(67,41,o),
(150,4,cs),
(207,-20,o),
(279,14,o),
(335,79,cs),
(345,90,l),
(323,110,l),
(313,99,ls),
(261,39,o),
(205,13,o),
(162,32,cs),
(97,60,o),
(85,180,o),
(141,307,cs),
(163,357,o),
(191,399,o),
(220,429,c),
(288,483,o),
(326,492,o),
(357,478,cs),
(377,470,o),
(390,454,o),
(400,429,cs),
(406,415,l),
(433,426,l),
(428,439,ls),
(416,470,o),
(396,494,o),
(369,506,cs),
(332,522,o),
(290,514,o),
(235,481,c)
);
}
);
width = 483;
},
{
guides = (
{
pos = (200,-1);
}
);
layerId = m002;
shapes = (
{
closed = 1;
nodes = (
(203,456,o),
(63,330,o),
(4,271,c),
(32,230,l),
(52,259,o),
(73,304,o),
(116,344,cs),
(121,349,o),
(131,342,o),
(128,336,cs),
(121,319,ls),
(61,174,o),
(68,47,o),
(155,9,cs),
(216,-17,o),
(290,25,o),
(350,87,cs),
(399,138,l),
(363,160,l),
(327,98,ls),
(301,53,o),
(212,-4,o),
(159,19,cs),
(87,49,o),
(78,174,o),
(139,312,cs),
(156,351,o),
(196,419,o),
(211,434,cs),
(274,497,o),
(340,503,o),
(368,492,cs),
(400,479,o),
(409,455,o),
(410,432,cs),
(412,377,l),
(454,380,l),
(433,439,ls),
(426,458,o),
(403,490,o),
(374,501,cs),
(346,511,o),
(292,508,o),
(236,475,cs)
);
}
);
width = 504;
}
);
unicode = 99;
},
{
glyphname = d;
lastChange = "2023-04-21 15:47:11 +0000";
layers = (
{
layerId = m01;
shapes = (
{
closed = 1;
nodes = (
(367,116,o),
(329,88,o),
(291,59,cs),
(290,58,o),
(288,60,o),
(289,61,c),
(384,301,o),
(479,542,o),
(574,782,c),
(546,792,l),
(483,633,o),
(420,475,o),
(357,316,cs),
(356,315,o),
(353,315,o),
(353,317,cs),
(342,408,o),
(321,477,o),
(277,486,cs),
(170,508,o),
(-37,90,o),
(47,14,cs),
(83,-17,o),
(161,11,o),
(254,66,cs),
(256,67,o),
(258,65,o),
(257,64,c),
(245,34,ls),
(237,14,o),
(260,-3,o),
(277,10,cs),
(326,47,o),
(375,85,o),
(424,122,c),
(405,145,l)
);
},
{
closed = 1;
nodes = (
(2,95,o),
(190,473,o),
(271,456,cs),
(303,450,o),
(313,390,o),
(328,271,cs),
(329,263,o),
(330,249,o),
(284,130,cs),
(271,93,o),
(110,1,o),
(67,36,cs)
);
}
);
width = 600;
},
{
guides = (
{
pos = (339,185);
},
{
pos = (502,145);
}
);
layerId = m002;
shapes = (
{
closed = 1;
nodes = (
(400,84,o),
(326,41,o),
(287,28,cs),
(271,23,o),
(273,37,o),
(277,50,cs),
(323,197,o),
(473,531,o),
(587,778,c),
(536,796,l),
(503,662,o),
(461,497,o),
(375,360,cs),
(368,349,o),
(361,348,o),
(361,356,cs),
(361,421,o),
(321,466,o),
(284,473,cs),
(160,498,o),
(-43,109,o),
(57,19,cs),
(91,-10,o),
(157,3,o),
(240,50,cs),
(249,55,o),
(256,52,o),
(252,43,cs),
(248,34,ls),
(239,14,o),
(265,-6,o),
(284,6,cs),
(311,23,o),
(373,62,o),
(486,145,c),
(459,189,l)
);
},
{
closed = 1;
nodes = (
(-8,90,o),
(182,484,o),
(279,464,cs),
(311,458,o),
(356,411,o),
(343,292,cs),
(339,256,o),
(325,179,o),
(267,93,cs),
(242,56,o),
(108,-14,o),
(64,26,c)
);
}
);
width = 577;
}
);
unicode = 100;
},
{
glyphname = e;
lastChange = "2023-04-21 15:38:40 +0000";
layers = (
{
layerId = m01;
shapes = (
{
closed = 1;
nodes = (
(311,47,o),
(221,11,o),
(157,38,cs),
(100,60,o),
(71,127,o),
(68,198,cs),
(68,199,o),
(68,199,o),
(68,199,cs),
(392,420,ls),
(393,421,o),
(393,420,o),
(393,421,c),
(333,565,o),
(169,522,o),
(83,383,cs),
(54,336,o),
(39,275,o),
(39,217,c),
(23,206,o),
(6,194,o),
(-10,183,c),
(5,158,l),
(16,166,o),
(41,181,o),
(41,180,cs),
(49,104,o),
(83,35,o),
(145,10,cs),
(223,-22,o),
(329,21,o),
(403,105,c),
(381,125,l)
);
},
{
closed = 1;
nodes = (
(73,284,o),
(87,330,o),
(109,367,cs),
(171,471,o),
(295,528,o),
(354,431,c),
(355,431,o),
(355,430,o),
(354,429,cs),
(260,365,o),
(165,302,o),
(71,238,cs),
(70,237,o),
(68,238,o),
(68,239,cs)
);
}
);
width = 413;
},
{
layerId = m002;
shapes = (
{
closed = 1;
nodes = (
(388,41,o),
(252,-7,o),
(185,21,cs),
(139,40,o),
(99,89,o),
(92,162,cs),
(92,170,o),
(89,196,o),
(124,220,cs),
(393,407,ls),
(412,420,o),
(415,428,o),
(402,444,cs),
(315,551,o),
(151,477,o),
(107,383,cs),
(84,333,o),
(73,282,o),
(69,239,cs),
(66,203,o),
(19,189,o),
(-10,175,c),
(23,125,l),
(37,138,o),
(67,186,o),
(73,153,c),
(94,80,o),
(121,36,o),
(181,10,cs),
(257,-23,o),
(387,17,o),
(467,82,c),
(427,125,l)
);
},
{
closed = 1;
nodes = (
(96,290,o),
(99,331,o),
(118,366,cs),
(167,456,o),
(261,529,o),
(371,450,cs),
(392,435,o),
(381,421,o),
(364,407,cs),
(284,341,o),
(206,285,o),
(124,252,cs),
(97,241,o),
(96,250,o),
(96,271,cs)
);
}
);
width = 467;
}
);
unicode = 101;
},
{
glyphname = f;
lastChange = "2023-04-21 15:38:57 +0000";
layers = (
{
layerId = m01;
shapes = (
{
closed = 1;
nodes = (
(34,110,o),
(57,110,o),
(81,110,cs),
(82,110,o),
(83,109,o),
(82,108,c),
(66,45,l),
(29,-138,o),
(110,-313,o),
(199,-444,c),
(223,-428,l),
(136,-299,o),
(59,-134,o),
(94,39,cs),
(99,63,o),
(106,87,o),
(115,109,cs),
(115,109,o),
(116,110,o),
(116,110,cs),
(207,111,o),
(297,111,o),
(388,112,c),
(388,140,l),
(302,140,o),
(215,139,o),
(129,139,cs),
(128,139,o),
(127,140,o),
(128,141,cs),
(215,332,o),
(401,455,o),
(368,479,cs),
(352,491,o),
(308,432,o),
(222,404,cs),
(164,385,o),
(114,375,o),
(74,374,c),
(74,346,l),
(116,347,o),
(198,362,o),
(255,387,c),
(272,390,o),
(272,390,o),
(262,379,c),
(266,384,o),
(131,237,o),
(93,140,cs),
(93,140,o),
(92,139,o),
(92,139,cs),
(65,139,o),
(37,138,o),
(10,138,c),
(10,110,l)
);
}
);
width = 398;
},
{
layerId = m002;
shapes = (
{
closed = 1;
nodes = (
(36,119,o),
(82,121,o),
(96,119,cs),
(126,116,o),
(140,105,o),
(134,77,cs),
(125,38,ls),
(83,-143,o),
(166,-317,o),
(257,-450,c),
(309,-415,l),
(184,-330,o),
(99,-138,o),
(135,37,cs),
(140,59,o),
(149,78,o),
(162,95,cs),
(179,115,o),
(201,118,o),
(213,119,cs),
(258,121,o),
(409,118,o),
(483,104,c),
(484,151,l),
(408,124,o),
(257,132,o),
(214,132,cs),
(194,132,o),
(170,137,o),
(185,168,cs),
(273,344,o),
(459,456,o),
(424,481,c),
(402,495,o),
(341,423,o),
(280,383,cs),
(260,371,o),
(154,316,o),
(85,370,c),
(85,329,l),
(166,320,o),
(225,344,o),
(286,375,cs),
(322,393,o),
(336,391,o),
(280,327,cs),
(237,279,o),
(194,215,o),
(171,173,cs),
(156,146,o),
(139,136,o),
(115,132,cs),
(88,128,o),
(36,139,o),
(10,150,c),
(10,109,l)
);
}
);
width = 494;
}
);
unicode = 102;
},
{
glyphname = g;
lastChange = "2023-04-21 15:49:33 +0000";
layers = (
{
layerId = m01;
shapes = (
{
closed = 1;
nodes = (
(383,338,o),
(391,414,o),
(373,458,c),
(373,458,o),
(406,483,o),
(419,492,c),
(403,517,l),
(388,505,o),
(356,483,o),
(354,484,cs),
(282,532,o),
(193,452,o),
(153,375,cs),
(108,293,o),
(98,178,o),
(169,153,c),
(172,153,o),
(172,151,o),
(170,149,cs),
(129,112,o),
(94,79,o),
(54,43,cs),
(43,32,o),
(51,19,o),
(62,23,cs),
(137,49,o),
(229,72,o),
(273,30,c),
(328,-30,o),
(274,-175,o),
(178,-245,cs),
(120,-287,o),
(17,-326,o),
(-36,-273,cs),
(-81,-229,o),
(-74,-139,o),
(-5,-57,c),
(-30,-33,l),
(-110,-125,o),
(-113,-240,o),
(-59,-296,cs),
(8,-362,o),
(133,-314,o),
(196,-269,cs),
(301,-192,o),
(366,-23,o),
(296,50,cs),
(260,86,o),
(203,88,o),
(155,81,c),
(151,81,o),
(148,85,o),
(151,87,c),
(174,111,o),
(195,130,o),
(219,152,c),
(265,163,o),
(314,208,o),
(348,271,cs)
);
},
{
closed = 1;
nodes = (
(220,356,o),
(279,395,o),
(340,438,c),
(347,438,o),
(343,438,o),
(348,438,c),
(362,404,o),
(356,348,o),
(322,286,cs),
(279,203,o),
(213,163,o),
(176,182,cs),
(144,200,o),
(139,252,o),
(159,315,c)
);
},
{
closed = 1;
nodes = (
(231,449,o),
(287,481,o),
(322,465,c),
(322,465,o),
(323,461,o),
(320,460,c),
(196,374,l),
(194,372,o),
(188,375,o),
(190,382,c)
);
}
);
width = 425;
},
{
layerId = m002;
shapes = (
{
closed = 1;
nodes = (
(434,349,o),
(438,405,o),
(424,450,cs),
(416,478,o),
(490,495,o),
(515,505,c),
(470,544,l),
(456,523,o),
(421,463,o),
(401,486,cs),
(317,537,o),
(257,471,o),
(206,377,cs),
(153,279,o),
(130,182,o),
(193,148,c),
(206,140,o),
(208,125,o),
(199,116,cs),
(169,80,o),
(150,71,o),
(112,37,cs),
(97,24,o),
(112,13,o),
(126,19,cs),
(210,47,o),
(300,56,o),
(343,13,cs),
(413,-59,o),
(361,-196,o),
(225,-297,cs),
(133,-362,o),
(27,-376,o),
(-17,-329,cs),
(-88,-251,o),
(-15,-127,o),
(46,-97,c),
(-9,-48,l),
(-77,-144,o),
(-85,-269,o),
(-27,-334,cs),
(23,-390,o),
(139,-379,o),
(237,-310,cs),
(379,-206,o),
(428,-59,o),
(350,25,cs),
(315,61,o),
(256,64,o),
(202,64,cs),
(184,64,o),
(181,72,o),
(190,87,cs),
(204,109,o),
(220,116,o),
(245,132,c),
(287,151,o),
(359,207,o),
(395,275,cs)
);
},
{
closed = 1;
nodes = (
(266,369,o),
(310,397,o),
(379,435,c),
(392,444,o),
(404,435,o),
(406,430,cs),
(425,373,o),
(403,314,o),
(384,279,cs),
(338,190,o),
(236,136,o),
(206,152,cs),
(166,173,o),
(139,218,o),
(203,318,c)
);
},
{
closed = 1;
nodes = (
(271,464,o),
(326,507,o),
(371,488,cs),
(393,478,o),
(395,466,o),
(384,458,cs),
(249,368,ls),
(205,339,o),
(194,345,o),
(227,397,cs)
);
}
);
width = 525;
}
);
unicode = 103;
},
{
glyphname = h;
lastChange = "2023-04-21 15:40:10 +0000";
layers = (
{
layerId = m01;
shapes = (
{
closed = 1;
nodes = (
(388,108,o),
(344,77,o),
(299,47,cs),
(298,46,o),
(295,48,o),
(296,49,cs),
(407,330,l),
(412,346,ls),
(416,365,o),
(417,397,o),
(400,424,cs),
(377,460,o),
(334,465,o),
(319,467,cs),
(274,471,o),
(238,452,o),
(220,441,cs),
(209,434,o),
(200,428,o),
(191,421,cs),
(189,419,o),
(187,422,o),
(188,423,cs),
(327,773,ls),
(333,789,o),
(316,803,o),
(302,793,cs),
(214,732,o),
(126,672,o),
(38,611,c),
(54,587,l),
(129,638,o),
(203,690,o),
(278,741,cs),
(279,742,o),
(282,739,o),
(281,738,cs),
(112,313,o),
(110,309,o),
(-10,6,c),
(18,-6,l),
(60,100,o),
(102,205,o),
(144,311,c),
(158,341,o),
(187,386,o),
(236,415,cs),
(254,426,o),
(280,441,o),
(315,437,cs),
(330,435,o),
(359,432,o),
(374,408,cs),
(392,379,o),
(381,343,o),
(380,344,c),
(250,14,ls),
(244,-2,o),
(261,-15,o),
(275,-5,cs),
(449,114,l),
(433,138,l)
);
}
);
width = 449;
},
{
guides = (
{
pos = (451,170);
},
{
pos = (-5,566);
},
{
pos = (-25,625);
}
);
layerId = m002;
shapes = (
{
closed = 1;
nodes = (
(412,95,o),
(334,54,o),
(303,37,cs),
(278,23,o),
(265,32,o),
(280,65,cs),
(401,330,l),
(406,346,ls),
(412,365,o),
(411,397,o),
(394,424,cs),
(371,460,o),
(337,465,o),
(313,467,cs),
(268,471,o),
(240,452,o),
(222,441,cs),
(211,434,o),
(206,430,o),
(206,430,cs),
(192,421,o),
(180,427,o),
(189,450,cs),
(321,773,ls),
(328,789,o),
(316,802,o),
(303,789,cs),
(234,721,o),
(166,636,o),
(-10,626,c),
(-10,566,l),
(92,617,o),
(191,659,o),
(280,753,cs),
(296,769,o),
(306,759,o),
(298,742,cs),
(97,315,o),
(131,290,o),
(-5,1,c),
(60,0,l),
(46,53,o),
(77,162,o),
(138,311,c),
(162,358,o),
(203,410,o),
(239,431,cs),
(257,442,o),
(287,456,o),
(322,452,cs),
(346,449,o),
(371,435,o),
(386,411,cs),
(404,382,o),
(384,325,o),
(384,325,cs),
(246,24,ls),
(239,8,o),
(257,-6,o),
(273,4,cs),
(485,132,l),
(452,170,l)
);
}
);
width = 484;
}
);
unicode = 104;
},
{
glyphname = i;
lastChange = "2023-04-21 15:40:36 +0000";
layers = (
{
layerId = m01;
shapes = (
{
closed = 1;
nodes = (
(78,249,o),
(30,141,o),
(-18,33,cs),
(-26,15,o),
(-7,-2,o),
(9,9,cs),
(106,75,o),
(203,142,o),
(298,207,c),
(282,231,l),
(199,174,o),
(115,117,o),
(30,60,cs),
(29,59,o),
(27,60,o),
(28,62,cs),
(70,156,o),
(112,251,o),
(152,346,c),
(124,358,l)
);
},
{
pos = (-22,0);
ref = dotaccentcomb;
}
);
width = 308;
},
{
layerId = m002;
shapes = (
{
closed = 1;
nodes = (
(103,304,o),
(31,143,o),
(-18,33,cs),
(-26,15,o),
(-7,0,o),
(9,9,cs),
(81,51,o),
(131,107,o),
(310,189,c),
(274,236,l),
(218,132,o),
(103,87,o),
(67,70,cs),
(37,54,o),
(17,58,o),
(24,90,cs),
(27,105,o),
(65,242,o),
(199,412,c),
(153,412,l)
);
},
{
pos = (-22,0);
ref = dotaccentcomb;
}
);
width = 320;
}
);
unicode = 105;
},
{
glyphname = j;
lastChange = "2023-04-21 15:40:52 +0000";
layers = (
{
layerId = m01;
shapes = (
{
closed = 1;
nodes = (
(407,-70,o),
(362,-57,o),
(318,-48,c),
(318,-48,o),
(318,-47,o),
(318,-47,c),
(494,402,ls),
(500,418,o),
(484,431,o),
(470,422,cs),
(372,358,o),
(275,292,o),
(177,228,c),
(193,202,l),
(277,258,o),
(361,315,o),
(445,370,cs),
(447,371,o),
(449,370,o),
(448,368,cs),
(395,231,o),
(340,94,o),
(287,-42,c),
(287,-42,o),
(287,-43,o),
(286,-43,cs),
(131,-22,o),
(11,-68,o),
(-17,-136,cs),
(-48,-217,o),
(31,-342,o),
(153,-435,cs),
(159,-440,o),
(167,-438,o),
(170,-430,cs),
(215,-312,o),
(260,-195,o),
(306,-78,c),
(306,-78,o),
(306,-77,o),
(307,-77,cs),
(350,-85,o),
(394,-98,o),
(442,-118,c),
(454,-90,l)
);
},
{
closed = 1;
nodes = (
(34,-93,o),
(134,-54,o),
(272,-72,cs),
(274,-72,o),
(276,-73,o),
(275,-73,c),
(234,-179,o),
(192,-286,o),
(152,-393,cs),
(151,-394,o),
(150,-394,o),
(150,-394,cs),
(45,-308,o),
(-12,-208,o),
(11,-148,cs)
);
}
);
width = 495;
},
{
guides = (
{
pos = (127,-433);
}
);
hints = (
{
horizontal = 1;
place = (-440, 30);
place = (-440, 30);
type = Stem;
},
{
horizontal = 1;
place = (432, 30);
place = (432, 30);
type = Stem;
}
);
layerId = m002;
shapes = (
{
closed = 1;
nodes = (
(490,-117,o),
(379,-51,o),
(340,-37,cs),
(310,-27,o),
(324,8,o),
(334,33,cs),
(481,402,ls),
(487,418,o),
(471,432,o),
(457,422,cs),
(364,359,o),
(280,218,o),
(89,203,c),
(115,149,l),
(191,194,o),
(300,279,o),
(372,329,cs),
(417,360,o),
(427,342,o),
(418,299,cs),
(404,232,o),
(362,129,o),
(326,35,cs),
(317,12,o),
(300,-23,o),
(262,-20,cs),
(116,-8,o),
(11,-79,o),
(-16,-144,cs),
(-47,-225,o),
(8,-328,o),
(130,-421,cs),
(146,-435,o),
(164,-422,o),
(168,-411,cs),
(210,-301,o),
(241,-209,o),
(284,-100,cs),
(292,-79,o),
(310,-61,o),
(331,-57,cs),
(351,-53,o),
(450,-70,o),
(490,-191,c),
(511,-140,l)
);
},
{
closed = 1;
nodes = (
(11,-100,o),
(85,-38,o),
(193,-33,cs),
(252,-30,o),
(280,-45,o),
(264,-106,cs),
(256,-135,o),
(234,-206,o),
(179,-346,cs),
(164,-385,o),
(129,-402,o),
(96,-374,cs),
(0,-293,o),
(-32,-211,o),
(-9,-150,cs)
);
}
);
width = 511;
}
);
unicode = 106;
},
{
glyphname = k;
lastChange = "2023-04-21 17:54:33 +0000";
layers = (
{
layerId = m01;
shapes = (
{
closed = 1;
nodes = (
(140,646,o),
(217,698,o),
(294,751,cs),
(295,752,o),
(298,749,o),
(297,748,cs),
(82,206,l),
(2,5,l),
(29,-5,l),
(55,61,o),
(81,127,o),
(107,193,cs),
(185,389,o),
(263,585,o),
(341,781,cs),
(347,797,o),
(330,811,o),
(316,801,cs),
(226,740,o),
(137,678,o),
(47,617,c),
(63,593,l)
);
},
{
closed = 1;
nodes = (
(374,23,o),
(376,49,o),
(375,79,cs),
(373,171,o),
(375,328,o),
(273,408,cs),
(253,422,o),
(186,475,o),
(113,455,c),
(102,453,o),
(58,441,o),
(32,397,cs),
(10,356,o),
(12,301,o),
(41,264,cs),
(81,214,o),
(158,226,o),
(190,230,cs),
(358,254,o),
(456,441,o),
(478,488,c),
(452,500,l),
(441,476,o),
(411,419,o),
(365,366,cs),
(321,316,o),
(261,269,o),
(186,258,cs),
(154,254,o),
(93,246,o),
(63,282,cs),
(41,310,o),
(40,351,o),
(58,383,cs),
(77,416,o),
(109,425,o),
(119,427,cs),
(180,443,o),
(235,400,o),
(255,384,cs),
(345,314,o),
(344,171,o),
(347,79,cs),
(347,49,o),
(346,25,o),
(345,9,c),
(373,7,l)
);
},
{
closed = 1;
nodes = (
(314,308,o),
(318,299,o),
(323,290,c),
(330,295,o),
(336,300,o),
(343,305,c),
(339,314,o),
(334,323,o),
(330,332,c),
(323,327,o),
(316,322,o),
(309,317,c)
);
},
{
closed = 1;
nodes = (
(109,251,o),
(103,248,o),
(98,246,c),
(101,241,o),
(104,238,o),
(107,233,c),
(113,237,o),
(119,240,o),
(125,243,c),
(121,246,o),
(118,250,o),
(114,253,c)
);
},
{
closed = 1;
nodes = (
(188,446,o),
(182,443,o),
(177,441,c),
(178,439,o),
(180,437,o),
(181,435,cs),
(183,433,o),
(184,431,o),
(186,428,c),
(189,430,o),
(193,432,o),
(196,434,cs),
(199,435,o),
(201,437,o),
(204,438,c),
(200,441,o),
(197,445,o),
(193,448,c)
);
}
);
width = 478;
},
{
guides = (
{
pos = (85,566);
}
);
hints = (
{
horizontal = 1;
origin = (0,21);
target = up;
type = BottomGhost;
}
);
layerId = m002;
shapes = (
{
closed = 1;
nodes = (
(99,606,o),
(238,691,o),
(287,740,cs),
(294,747,o),
(304,740,o),
(298,725,cs),
(80,184,l),
(2,2,l),
(48,2,l),
(66,62,o),
(80,122,o),
(99,181,cs),
(163,377,o),
(240,571,o),
(331,782,cs),
(336,793,o),
(328,803,o),
(319,793,cs),
(228,682,o),
(140,641,o),
(16,616,c),
(17,564,l)
);
},
{
closed = 1;
nodes = (
(366,29,o),
(368,51,o),
(367,77,cs),
(365,166,o),
(362,320,o),
(264,397,cs),
(244,411,o),
(183,461,o),
(114,442,c),
(103,440,o),
(62,433,o),
(37,392,cs),
(16,352,o),
(21,306,o),
(48,270,cs),
(86,224,o),
(156,233,o),
(188,237,cs),
(346,259,o),
(441,427,o),
(468,483,c),
(432,497,l),
(417,433,o),
(407,397,o),
(360,339,cs),
(323,293,o),
(250,253,o),
(186,244,cs),
(154,240,o),
(88,236,o),
(56,275,cs),
(32,305,o),
(32,350,o),
(51,384,cs),
(71,420,o),
(106,430,o),
(116,433,cs),
(184,453,o),
(240,403,o),
(260,387,cs),
(361,309,o),
(367,169,o),
(342,77,cs),
(335,51,o),
(324,27,o),
(316,11,c),
(365,12,l)
);
},
{
closed = 1;
nodes = (
(354,313,o),
(295,288,o),
(229,249,cs),
(336,313,o),
(353,249,o),
(363,120,c),
(350,252,o),
(352,323,o),
(415,403,c),
(337,300,o),
(326,334,o),
(247,407,c)
);
},
{
closed = 1;
nodes = (
(111,272,o),
(109,235,o),
(51,272,c),
(102,231,o),
(93,201,o),
(76,157,c),
(107,228,o),
(134,231,o),
(186,239,c),
(108,250,o),
(134,270,o),
(142,322,c)
);
},
{
closed = 1;
nodes = (
(171,378,o),
(179,411,o),
(196,416,cs),
(200,417,o),
(219,419,o),
(246,406,c),
(196,445,o),
(200,471,o),
(221,517,c),
(186,457,o),
(172,445,o),
(107,439,c),
(126,435,o),
(160,440,o),
(168,431,cs),
(176,422,o),
(162,392,o),
(150,341,c)
);
}
);
width = 468;
}
);
unicode = 107;
},
{
glyphname = l;
lastChange = "2023-04-21 15:43:08 +0000";
layers = (
{
layerId = m01;
shapes = (
{
closed = 1;
nodes = (
(288,689,o),
(52,141,o),
(4,33,cs),
(-4,15,o),
(15,-2,o),
(31,9,cs),
(128,75,o),
(225,142,o),
(320,207,c),
(304,231,l),
(221,174,o),
(137,117,o),
(52,60,cs),
(51,59,o),
(49,60,o),
(50,62,cs),
(92,156,o),
(322,691,o),
(362,786,c),
(334,798,l)
);
}
);
width = 362;
},
{
guides = (
{
pos = (353,261);
}
);
layerId = m002;
shapes = (
{
closed = 1;
nodes = (
(308,687,o),
(54,145,o),
(4,33,cs),
(-4,15,o),
(15,0,o),
(31,9,cs),
(103,51,o),
(153,107,o),
(332,189,c),
(296,236,l),
(238,140,o),
(126,87,o),
(89,70,cs),
(59,54,o),
(39,58,o),
(46,90,cs),
(49,105,o),
(284,618,o),
(418,788,c),
(365,788,l)
);
}
);
width = 418;
}
);
unicode = 108;
},
{
glyphname = m;
lastChange = "2023-04-21 15:43:32 +0000";
layers = (
{
layerId = m01;
shapes = (
{
closed = 1;
nodes = (
(348,108,o),
(304,77,o),
(259,47,cs),
(258,46,o),
(257,47,o),
(256,48,c),
(361,312,l),
(375,342,o),
(404,387,o),
(453,416,cs),
(471,427,o),
(497,442,o),
(532,438,cs),
(547,436,o),
(576,433,o),
(591,409,cs),
(609,380,o),
(598,344,o),
(597,345,c),
(467,15,ls),
(461,-1,o),
(478,-14,o),
(492,-4,cs),
(666,115,l),
(650,139,l),
(605,109,o),
(561,78,o),
(516,48,cs),
(515,47,o),
(512,49,o),
(512,50,c),
(624,331,l),
(629,347,ls),
(635,366,o),
(634,398,o),
(617,425,cs),
(594,461,o),
(551,466,o),
(536,468,cs),
(491,472,o),
(455,453,o),
(437,442,cs),
(417,430,o),
(408,420,o),
(376,378,cs),
(376,377,o),
(375,377,o),
(375,378,cs),
(374,393,o),
(370,410,o),
(360,424,cs),
(337,460,o),
(294,465,o),
(279,467,cs),
(234,471,o),
(198,452,o),
(180,441,cs),
(169,434,o),
(160,428,o),
(151,421,cs),
(149,419,o),
(148,422,o),
(148,423,c),
(168,473,ls),
(174,489,o),
(157,503,o),
(143,493,cs),
(55,432,o),
(41,425,o),
(-47,364,c),
(-31,340,l),
(119,441,ls),
(120,442,o),
(123,439,o),
(122,438,c),
(65,294,o),
(7,150,o),
(-50,6,c),
(-22,-6,l),
(20,100,o),
(62,205,o),
(104,311,c),
(118,341,o),
(147,386,o),
(196,415,cs),
(214,426,o),
(240,441,o),
(275,437,cs),
(290,435,o),
(319,432,o),
(334,408,cs),
(352,379,o),
(341,343,o),
(340,344,c),
(209,6,l),
(210,-6,o),
(223,-13,o),
(235,-5,cs),
(409,114,l),
(393,138,l)
);
}
);
width = 636;
},
{
layerId = m002;
shapes = (
{
closed = 1;
nodes = (
(425,115,o),
(336,53,o),
(306,35,cs),
(282,20,o),
(264,26,o),
(283,67,cs),
(406,335,l),
(429,373,o),
(462,410,o),
(491,427,cs),
(509,438,o),
(539,452,o),
(574,448,cs),
(598,445,o),
(623,431,o),
(638,407,cs),
(656,378,o),
(636,319,o),
(636,319,c),
(500,20,ls),
(493,4,o),
(509,-11,o),
(525,0,cs),
(736,141,l),
(704,189,l),
(674,111,o),
(585,49,o),
(555,31,cs),
(531,16,o),
(513,22,o),
(532,63,cs),
(653,326,l),
(658,342,ls),
(664,361,o),
(663,393,o),
(646,420,cs),
(623,456,o),
(589,461,o),
(565,463,cs),
(520,467,o),
(492,448,o),
(474,437,cs),
(466,432,o),
(460,426,o),
(438,403,cs),
(424,387,o),
(414,390,o),
(406,408,cs),
(403,413,o),
(401,418,o),
(397,424,cs),
(374,460,o),
(340,465,o),
(316,467,cs),
(271,471,o),
(243,452,o),
(225,441,cs),
(214,434,o),
(209,430,o),
(209,430,c),
(195,421,o),
(186,433,o),
(195,448,cs),
(215,481,ls),
(224,495,o),
(211,509,o),
(197,497,cs),
(128,437,o),
(40,359,o),
(-50,350,c),
(-23,310,l),
(170,464,ls),
(191,481,o),
(191,465,o),
(183,448,cs),
(80,220,o),
(43,150,o),
(-1,1,c),
(51,1,l),
(38,28,o),
(38,127,o),
(141,311,c),
(165,358,o),
(206,410,o),
(242,431,cs),
(260,442,o),
(290,456,o),
(325,452,cs),
(349,449,o),
(374,435,o),
(389,411,cs),
(407,382,o),
(387,323,o),
(387,323,c),
(251,24,ls),
(244,8,o),
(260,-7,o),
(276,4,cs),
(487,145,l),
(455,193,l)
);
}
);
width = 706;
}
);
unicode = 109;
},
{
glyphname = n;
lastChange = "2023-04-21 15:43:45 +0000";
layers = (
{
layerId = m01;
shapes = (
{
closed = 1;
nodes = (
(377,108,o),
(333,77,o),
(288,47,cs),
(287,46,o),
(284,48,o),
(285,49,cs),
(396,330,l),
(401,346,ls),
(407,365,o),
(406,397,o),
(389,424,cs),
(366,460,o),
(323,465,o),
(308,467,cs),
(263,471,o),
(227,452,o),
(209,441,cs),
(198,434,o),
(177,421,o),
(177,422,cs),
(197,473,ls),
(203,489,o),
(186,503,o),
(172,493,cs),
(84,432,o),
(70,425,o),
(-18,364,c),
(-2,340,l),
(148,441,ls),
(149,442,o),
(152,439,o),
(151,438,c),
(94,294,o),
(36,150,o),
(-21,6,c),
(7,-6,l),
(49,100,o),
(91,205,o),
(133,311,c),
(147,341,o),
(176,386,o),
(225,415,cs),
(243,426,o),
(269,441,o),
(304,437,cs),
(319,435,o),
(348,432,o),
(363,408,cs),
(381,379,o),
(370,343,o),
(369,344,c),
(239,14,ls),
(233,-2,o),
(250,-15,o),
(264,-5,cs),
(438,114,l),
(422,138,l)
);
}
);
width = 438;
},
{
guides = (
{
pos = (484,193);
},
{
pos = (6,310);
}
);
layerId = m002;
shapes = (
{
closed = 1;
nodes = (
(445,128,o),
(365,55,o),
(335,37,cs),
(311,22,o),
(295,31,o),
(312,67,cs),
(434,330,l),
(439,346,ls),
(445,365,o),
(449,396,o),
(431,424,cs),
(411,455,o),
(382,465,o),
(358,467,cs),
(313,471,o),
(269,447,o),
(255,439,cs),
(227,423,o),
(213,429,o),
(224,448,cs),
(244,481,ls),
(253,495,o),
(240,509,o),
(226,497,cs),
(157,437,o),
(69,359,o),
(-21,350,c),
(6,310,l),
(203,460,ls),
(215,469,o),
(220,465,o),
(212,448,c),
(109,220,o),
(72,150,o),
(28,1,c),
(80,1,l),
(66,32,o),
(67,137,o),
(172,311,c),
(196,358,o),
(235,410,o),
(271,431,cs),
(289,442,o),
(319,456,o),
(354,452,cs),
(378,449,o),
(403,435,o),
(418,411,cs),
(436,382,o),
(416,323,o),
(416,323,cs),
(280,24,ls),
(273,8,o),
(289,-7,o),
(305,4,cs),
(516,145,l),
(484,193,l)
);
}
);
width = 516;
}
);
unicode = 110;
},
{
glyphname = o;
lastChange = "2023-04-21 04:39:16 +0000";
layers = (
{
layerId = m01;
shapes = (
{
closed = 1;
nodes = (
(359,74,o),
(267,3,o),
(205,31,cs),
(156,51,o),
(138,125,o),
(157,213,cs),
(157,213,o),
(157,213,o),
(158,214,cs),
(251,278,o),
(345,343,o),
(438,407,cs),
(439,408,o),
(439,408,o),
(439,407,cs),
(456,355,o),
(449,276,o),
(414,196,cs)
);
},
{
closed = 1;
nodes = (
(99,176,o),
(111,37,o),
(193,3,cs),
(273,-32,o),
(382,52,o),
(442,184,cs),
(480,273,o),
(487,362,o),
(464,423,cs),
(464,423,o),
(464,424,o),
(465,425,cs),
(484,438,o),
(504,452,o),
(523,465,c),
(507,489,l),
(489,477,o),
(470,464,o),
(452,452,cs),
(451,451,o),
(451,451,o),
(450,452,cs),
(366,571,o),
(217,450,o),
(156,309,cs)
);
},
{
closed = 1;
nodes = (
(174,271,o),
(178,285,o),
(184,297,cs),
(234,412,o),
(354,531,o),
(426,435,cs),
(427,435,o),
(427,434,o),
(426,433,cs),
(341,375,o),
(275,332,o),
(190,274,cs),
(189,274,o),
(169,258,o),
(170,259,cs)
);
}
);
width = 600;
},
{
layerId = m002;
shapes = (
{
closed = 1;
nodes = (
(223,44,o),
(119,-10,o),
(54,19,cs),
(8,38,o),
(-23,92,o),
(-11,176,cs),
(-9,189,o),
(1,216,o),
(16,236,cs),
(74,311,o),
(143,386,o),
(261,414,cs),
(277,418,o),
(300,414,o),
(303,396,cs),
(313,340,o),
(316,254,o),
(287,186,cs)
);
},
{
closed = 1;
nodes = (
(-56,179,o),
(-32,43,o),
(50,9,cs),
(130,-26,o),
(245,44,o),
(305,176,cs),
(339,255,o),
(336,338,o),
(321,399,cs),
(317,413,o),
(318,426,o),
(334,426,cs),
(354,426,o),
(403,420,o),
(426,400,c),
(424,461,l),
(418,460,o),
(353,452,o),
(324,447,cs),
(313,445,o),
(305,442,o),
(287,460,cs),
(198,546,o),
(58,443,o),
(1,312,cs)
);
},
{
closed = 1;
nodes = (
(11,282,o),
(14,291,o),
(17,297,cs),
(66,409,o),
(194,539,o),
(272,455,cs),
(285,441,o),
(274,438,o),
(261,434,cs),
(176,410,o),
(89,340,o),
(25,276,cs),
(12,263,o),
(3,260,o),
(7,272,cs)
);
}
);
width = 336;
}
);
unicode = 111;
},
{
glyphname = p;
lastChange = "2023-04-15 01:11:12 +0000";
layers = (
{
layerId = m01;
shapes = (
{
closed = 1;
nodes = (
(-80,-293,o),
(-15,-147,o),
(50,0,cs),
(50,0,o),
(50,1,o),
(51,1,cs),
(91,-4,o),
(214,-15,o),
(317,58,cs),
(481,175,o),
(503,449,o),
(428,489,cs),
(396,507,o),
(340,493,o),
(205,348,cs),
(204,347,o),
(203,348,o),
(204,349,c),
(223,390,o),
(242,433,o),
(260,475,cs),
(271,498,o),
(256,511,o),
(235,496,cs),
(169,451,o),
(104,406,o),
(38,360,c),
(56,336,l),
(108,372,o),
(161,409,o),
(213,445,c),
(214,445,o),
(214,445,o),
(214,444,c),
(84,153,o),
(-44,-138,o),
(-174,-428,c),
(-146,-440,l)
);
},
{
closed = 1;
nodes = (
(65,30,o),
(65,31,o),
(65,31,c),
(97,105,o),
(130,179,o),
(162,253,c),
(162,254,o),
(163,255,o),
(163,255,c),
(338,460,o),
(391,475,o),
(414,463,cs),
(466,434,o),
(451,191,o),
(299,82,cs),
(213,21,o),
(112,24,o),
(65,30,c)
);
}
);
width = 600;
},
{
layerId = m002;
shapes = (
{
closed = 1;
nodes = (
(-63,-274,o),
(-33,-173,o),
(42,-46,cs),
(68,-1,o),
(83,13,o),
(104,10,cs),
(156,4,o),
(231,1,o),
(312,58,cs),
(485,182,o),
(519,439,o),
(432,485,cs),
(400,502,o),
(347,488,o),
(237,365,cs),
(226,352,o),
(208,351,o),
(217,373,cs),
(234,414,o),
(247,445,o),
(260,472,cs),
(271,495,o),
(256,508,o),
(235,493,cs),
(169,448,o),
(79,389,o),
(-1,347,c),
(31,304,l),
(47,340,o),
(94,396,o),
(180,445,cs),
(220,467,o),
(231,431,o),
(216,398,cs),
(110,167,o),
(-13,-161,o),
(-174,-452,c),
(-119,-452,l)
);
},
{
closed = 1;
nodes = (
(89,43,o),
(86,56,o),
(91,70,cs),
(108,123,o),
(133,186,o),
(161,240,cs),
(175,268,o),
(189,286,o),
(197,296,cs),
(338,467,o),
(403,489,o),
(427,476,cs),
(501,437,o),
(443,164,o),
(307,66,cs),
(233,12,o),
(148,22,o),
(104,38,cs)
);
}
);
width = 600;
}
);
unicode = 112;
},
{
glyphname = q;
lastChange = "2023-04-15 16:47:05 +0000";
layers = (
{
guides = (
{
pos = (72,-484);
}
);
layerId = m01;
shapes = (
{
closed = 1;
nodes = (
(237,-305,o),
(181,-344,o),
(125,-382,c),
(120,-385,o),
(119,-382,o),
(120,-378,c),
(226,-138,o),
(372,217,o),
(478,458,cs),
(480,466,o),
(476,471,o),
(469,474,cs),
(428,481,o),
(308,497,o),
(203,429,cs),
(40,319,o),
(9,55,o),
(79,14,cs),
(110,-3,o),
(165,8,o),
(298,139,cs),
(300,141,o),
(310,154,o),
(303,137,cs),
(67,-421,ls),
(61,-436,o),
(85,-453,o),
(101,-442,c),
(171,-392,o),
(240,-343,o),
(310,-293,c),
(293,-267,l)
);
},
{
closed = 1;
nodes = (
(341,230,ls),
(323,191,o),
(126,12,o),
(95,39,cs),
(49,80,o),
(69,303,o),
(221,404,cs),
(300,458,o),
(391,454,o),
(440,447,cs),
(441,447,o),
(441,446,o),
(441,445,cs)
);
}
);
width = 600;
},
{
layerId = m002;
shapes = (
{
closed = 1;
nodes = (
(360,-217,o),
(205,-381,o),
(112,-420,cs),
(100,-425,o),
(87,-409,o),
(92,-393,cs),
(175,-154,o),
(371,190,o),
(476,432,cs),
(485,452,o),
(477,472,o),
(466,475,cs),
(424,486,o),
(327,510,o),
(209,437,cs),
(50,339,o),
(-23,85,o),
(68,34,cs),
(100,16,o),
(146,0,o),
(229,49,cs),
(280,79,o),
(271,56,o),
(253,15,cs),
(44,-459,ls),
(38,-472,o),
(51,-480,o),
(62,-473,cs),
(129,-431,o),
(345,-284,o),
(466,-119,c),
(406,-119,l)
);
},
{
closed = 1;
nodes = (
(380,256,ls),
(327,120,o),
(150,-8,o),
(77,43,cs),
(16,85,o),
(74,348,o),
(215,428,cs),
(302,477,o),
(361,467,o),
(398,460,cs),
(421,454,o),
(454,446,o),
(427,377,cs)
);
}
);
width = 600;
}
);
unicode = 113;
},
{
glyphname = r;
lastChange = "2023-04-14 18:36:51 +0000";
layers = (
{
layerId = m01;
shapes = (
{
closed = 1;
nodes = (
(429,330,l),
(429,335,o),
(429,341,o),
(429,346,cs),
(429,355,o),
(434,397,o),
(417,424,cs),
(394,460,o),
(351,465,o),
(336,467,cs),
(291,471,o),
(255,452,o),
(237,441,cs),
(226,434,o),
(217,428,o),
(208,421,cs),
(206,419,o),
(205,422,o),
(205,423,cs),
(225,473,ls),
(231,489,o),
(214,503,o),
(200,493,cs),
(112,432,o),
(98,425,o),
(10,364,c),
(26,340,l),
(176,441,ls),
(177,442,o),
(180,439,o),
(179,438,c),
(122,294,o),
(64,150,o),
(7,6,c),
(35,-6,l),
(77,100,o),
(119,205,o),
(161,311,c),
(175,341,o),
(204,386,o),
(253,415,cs),
(271,426,o),
(297,441,o),
(332,437,cs),
(347,435,o),
(379,433,o),
(391,408,cs),
(405,379,o),
(397,346,o),
(397,330,c)
);
}
);
width = 600;
},
{
layerId = m002;
shapes = (
{
closed = 1;
nodes = (
(418,288,l),
(425,307,o),
(434,326,o),
(438,346,cs),
(441,363,o),
(443,397,o),
(426,424,cs),
(403,460,o),
(369,465,o),
(345,467,cs),
(300,471,o),
(272,452,o),
(254,441,cs),
(243,434,o),
(238,430,o),
(238,430,cs),
(224,421,o),
(215,433,o),
(224,448,cs),
(244,481,ls),
(253,495,o),
(240,509,o),
(226,497,cs),
(157,437,o),
(69,359,o),
(-21,350,c),
(6,310,l),
(199,464,ls),
(220,481,o),
(220,465,o),
(212,448,c),
(109,220,o),
(72,150,o),
(28,1,c),
(80,1,l),
(63,32,o),
(55,138,o),
(170,311,c),
(194,358,o),
(235,410,o),
(271,431,cs),
(289,442,o),
(319,456,o),
(354,452,cs),
(378,449,o),
(412,437,o),
(418,411,cs),
(434,346,o),
(373,304,o),
(354,292,c)
);
}
);
width = 600;
}
);
unicode = 114;
},
{
glyphname = s;
lastChange = "2023-04-15 00:04:31 +0000";
layers = (
{
layerId = m01;
shapes = (
{
closed = 1;
nodes = (
(73,195,o),
(69,118,o),
(107,61,cs),
(116,49,o),
(151,3,o),
(209,-3,cs),
(251,-7,o),
(304,8,o),
(332,53,cs),
(363,97,o),
(356,148,o),
(343,178,cs),
(324,220,o),
(303,235,o),
(263,265,cs),
(227,292,o),
(187,328,o),
(185,336,c),
(170,364,o),
(187,408,o),
(220,434,cs),
(264,469,o),
(338,461,o),
(375,411,cs),
(405,370,o),
(405,314,o),
(378,260,c),
(404,246,l),
(436,307,o),
(436,379,o),
(399,429,cs),
(350,495,o),
(256,501,o),
(202,458,cs),
(161,426,o),
(137,366,o),
(157,324,cs),
(163,310,o),
(213,266,o),
(245,241,cs),
(277,217,o),
(306,187,o),
(315,166,cs),
(326,141,o),
(331,104,o),
(308,69,cs),
(285,35,o),
(247,23,o),
(213,27,cs),
(167,31,o),
(140,67,o),
(131,79,cs),
(100,125,o),
(103,188,o),
(136,246,c),
(110,260,l)
);
}
);
width = 600;
},
{
layerId = m002;
shapes = (
{
closed = 1;
nodes = (
(87,190,o),
(85,113,o),
(116,66,cs),
(125,54,o),
(155,6,o),
(213,0,cs),
(255,-4,o),
(301,12,o),
(329,57,cs),
(360,101,o),
(349,143,o),
(335,173,cs),
(320,206,o),
(291,224,o),
(256,247,cs),
(227,266,o),
(193,301,o),
(178,328,c),
(163,356,o),
(161,410,o),
(211,450,cs),
(277,502,o),
(338,477,o),
(376,426,cs),
(410,379,o),
(419,315,o),
(347,271,c),
(386,250,l),
(418,311,o),
(426,379,o),
(389,429,cs),
(340,495,o),
(256,501,o),
(202,458,cs),
(161,426,o),
(145,370,o),
(165,328,cs),
(180,293,o),
(221,264,o),
(251,241,cs),
(284,216,o),
(305,206,o),
(324,173,cs),
(337,150,o),
(347,96,o),
(324,61,cs),
(297,21,o),
(257,5,o),
(213,10,cs),
(167,14,o),
(133,56,o),
(124,68,cs),
(93,114,o),
(99,173,o),
(141,246,c),
(97,257,l)
);
}
);
width = 600;
}
);
unicode = 115;
},
{
glyphname = t;
lastChange = "2023-04-15 01:38:52 +0000";
layers = (
{
layerId = m01;
shapes = (
{
closed = 1;
nodes = (
(206,501,ls),
(206,500,o),
(205,500,o),
(205,500,cs),
(150,500,o),
(95,500,o),
(40,500,c),
(40,469,l),
(90,469,o),
(141,469,o),
(191,469,cs),
(192,469,o),
(193,468,o),
(192,467,cs),
(114,287,o),
(31,93,o),
(4,33,cs),
(-4,15,o),
(15,-2,o),
(31,9,cs),
(128,75,o),
(225,142,o),
(320,207,c),
(304,231,l),
(221,174,o),
(137,117,o),
(52,60,cs),
(51,59,o),
(49,60,o),
(50,62,cs),
(73,114,o),
(153,298,o),
(226,468,cs),
(226,468,o),
(227,469,o),
(227,469,cs),
(285,469,o),
(342,469,o),
(400,469,c),
(400,500,l),
(347,500,o),
(295,500,o),
(242,500,cs),
(241,500,o),
(240,501,o),
(241,502,cs),
(282,596,o),
(321,692,o),
(362,786,c),
(334,798,l)
);
}
);
width = 600;
},
{
guides = (
{
pos = (191,455);
}
);
layerId = m002;
shapes = (
{
closed = 1;
nodes = (
(232,526,ls),
(224,510,o),
(217,499,o),
(189,499,cs),
(127,502,o),
(88,495,o),
(16,508,c),
(16,455,l),
(89,482,o),
(111,491,o),
(181,486,cs),
(196,485,o),
(206,468,o),
(199,452,cs),
(118,259,o),
(32,96,o),
(4,33,cs),
(-4,15,o),
(15,0,o),
(31,9,cs),
(103,51,o),
(153,107,o),
(332,189,c),
(296,236,l),
(232,142,o),
(124,86,o),
(89,70,cs),
(59,54,o),
(39,58,o),
(46,90,cs),
(48,98,o),
(120,253,o),
(217,449,cs),
(220,456,o),
(229,478,o),
(256,479,cs),
(362,482,o),
(358,474,o),
(414,454,c),
(415,511,l),
(334,488,o),
(289,496,o),
(271,498,cs),
(251,500,o),
(246,509,o),
(252,526,cs),
(289,625,o),
(375,736,o),
(415,788,c),
(369,788,l)
);
}
);
width = 600;
}
);
unicode = 116;
},
{
glyphname = u;
lastChange = "2023-04-15 17:26:28 +0000";
layers = (
{
layerId = m01;
shapes = (
{
pos = (2,0);
ref = one_side_of_u;
},
{
closed = 1;
nodes = (
(252,39,o),
(283,84,o),
(267,32,c),
(286,70,l),
(300,102,l),
(282,82,o),
(252,48,o),
(245,43,c)
);
},
{
ref = other_side_u;
}
);
width = 600;
},
{
guides = (
{
pos = (484,193);
},
{
pos = (6,310);
}
);
layerId = m002;
shapes = (
{
ref = one_side_of_u;
},
{
closed = 1;
nodes = (
(254,42,o),
(267,61,o),
(256,23,c),
(276,61,l),
(291,94,l),
(272,73,o),
(239,37,o),
(233,33,c)
);
},
{
ref = other_side_u;
}
);
width = 600;
}
);
unicode = 117;
},
{
glyphname = v;
lastChange = "2023-04-15 17:13:17 +0000";
layers = (
{
guides = (
{
pos = (286,503);
},
{
pos = (108,326);
}
);
layerId = m01;
shapes = (
{
closed = 1;
nodes = (
(151,361,o),
(193,386,o),
(237,419,cs),
(238,420,o),
(241,417,o),
(240,416,c),
(186,284,o),
(131,153,o),
(77,21,cs),
(67,-4,o),
(91,-16,o),
(107,2,cs),
(240,150,o),
(374,299,o),
(507,447,c),
(485,467,l),
(372,341,o),
(254,208,o),
(140,82,cs),
(139,81,o),
(136,83,o),
(136,84,cs),
(190,213,o),
(244,342,o),
(298,471,cs),
(303,484,o),
(287,496,o),
(276,487,cs),
(213,439,o),
(152,400,o),
(87,353,c),
(107,328,l)
);
}
);
width = 600;
},
{
guides = (
{
pos = (107,9);
},
{
pos = (271,472);
},
{
pos = (90,310);
}
);
layerId = m002;
shapes = (
{
closed = 1;
nodes = (
(129,343,o),
(179,393,o),
(234,433,cs),
(252,447,o),
(249,429,o),
(246,418,c),
(205,275,o),
(137,152,o),
(86,24,cs),
(80,10,o),
(96,4,o),
(107,17,cs),
(230,158,o),
(327,281,o),
(525,446,c),
(485,474,l),
(405,362,o),
(264,206,o),
(139,83,cs),
(133,77,o),
(129,82,o),
(131,87,cs),
(181,209,o),
(232,337,o),
(286,469,cs),
(289,477,o),
(281,485,o),
(270,477,cs),
(221,442,o),
(192,387,o),
(38,348,c),
(65,310,l)
);
}
);
width = 600;
}
);
unicode = 118;
},
{
glyphname = w;
lastChange = "2023-04-15 17:36:52 +0000";
layers = (
{
hints = (
{
horizontal = 1;
place = (492, 30);
place = (492, 30);
type = Stem;
}
);
layerId = m01;
shapes = (
{
closed = 1;
nodes = (
(523,110,l),
(510,97,o),
(495,84,o),
(477,73,cs),
(459,62,o),
(433,47,o),
(398,51,cs),
(383,53,o),
(354,56,o),
(339,80,cs),
(321,109,o),
(332,145,o),
(333,144,c),
(464,482,l),
(463,494,o),
(450,501,o),
(438,493,cs),
(380,453,o),
(322,414,o),
(264,374,c),
(280,350,l),
(325,380,o),
(369,411,o),
(414,441,cs),
(415,442,o),
(416,441,o),
(417,440,c),
(312,176,l),
(298,146,o),
(269,101,o),
(220,72,cs),
(202,61,o),
(176,46,o),
(141,50,cs),
(126,52,o),
(97,55,o),
(82,79,cs),
(64,108,o),
(75,144,o),
(76,143,c),
(206,473,ls),
(212,489,o),
(195,502,o),
(181,492,cs),
(123,452,o),
(65,413,o),
(7,373,c),
(23,349,l),
(68,379,o),
(112,410,o),
(157,440,cs),
(158,441,o),
(161,439,o),
(161,438,c),
(49,157,l),
(44,141,ls),
(38,122,o),
(39,90,o),
(56,63,cs),
(79,27,o),
(122,22,o),
(137,20,cs),
(182,16,o),
(218,35,o),
(236,46,cs),
(256,58,o),
(265,68,o),
(297,110,cs),
(297,111,o),
(298,111,o),
(298,110,cs),
(299,95,o),
(303,78,o),
(313,64,cs),
(336,28,o),
(379,23,o),
(394,21,cs),
(439,17,o),
(475,36,o),
(493,47,cs),
(498,50,o),
(503,54,o),
(508,57,c)
);
},
{
closed = 1;
nodes = (
(607,317,o),
(552,186,o),
(482,22,cs),
(475,6,o),
(500,-9,o),
(513,2,c),
(577,45,o),
(628,78,o),
(692,121,c),
(674,147,l),
(625,113,o),
(576,80,o),
(527,46,cs),
(526,45,o),
(524,47,o),
(525,48,cs),
(588,196,o),
(638,323,o),
(701,474,c),
(692,478,o),
(682,482,o),
(673,486,c)
);
},
{
pos = (230,-1);
ref = connectiontri;
}
);
width = 723;
},
{
guides = (
{
pos = (179,480);
},
{
pos = (553,0);
},
{
pos = (3,312);
},
{
pos = (5,348);
}
);
layerId = m002;
shapes = (
{
closed = 1;
nodes = (
(544,98,l),
(526,70,o),
(509,59,o),
(494,50,cs),
(476,39,o),
(446,25,o),
(411,29,cs),
(387,32,o),
(363,46,o),
(348,70,cs),
(330,99,o),
(350,158,o),
(350,158,c),
(485,457,ls),
(492,472,o),
(481,484,o),
(464,473,cs),
(433,454,o),
(402,365,o),
(268,348,c),
(291,312,l),
(390,353,o),
(421,418,o),
(446,439,cs),
(457,449,o),
(469,448,o),
(453,414,cs),
(329,146,l),
(306,108,o),
(274,71,o),
(245,54,cs),
(227,43,o),
(197,29,o),
(162,33,cs),
(138,36,o),
(113,50,o),
(98,74,cs),
(80,103,o),
(100,162,o),
(100,162,c),
(234,457,ls),
(241,473,o),
(227,487,o),
(211,477,cs),
(176,454,o),
(162,394,o),
(5,348,c),
(36,312,l),
(103,359,o),
(174,423,o),
(191,442,cs),
(206,459,o),
(223,459,o),
(204,418,cs),
(83,155,l),
(78,139,ls),
(72,120,o),
(73,88,o),
(90,61,cs),
(113,25,o),
(147,20,o),
(171,18,cs),
(216,14,o),
(244,33,o),
(262,44,cs),
(270,49,o),
(276,55,o),
(298,78,cs),
(312,94,o),
(322,91,o),
(330,73,cs),
(333,68,o),
(335,63,o),
(339,57,cs),
(362,21,o),
(396,16,o),
(420,14,cs),
(465,10,o),
(493,29,o),
(511,40,cs),
(526,50,o),
(517,48,o),
(534,54,c)
);
},
{
closed = 1;
nodes = (
(672,317,o),
(550,107,o),
(495,10,c),
(490,1,o),
(503,-11,o),
(513,-4,cs),
(589,49,o),
(635,77,o),
(733,141,c),
(699,182,l),
(637,78,o),
(548,31,o),
(539,28,cs),
(522,23,o),
(524,31,o),
(532,48,cs),
(589,179,o),
(685,323,o),
(725,473,c),
(704,473,o),
(695,473,o),
(669,473,c)
);
},
{
angle = -4.09057;
pos = (292,10);
ref = connectiontri;
scale = (0.8052,0.8173);
}
);
width = 786;
}
);
unicode = 119;
},
{
glyphname = x;
lastChange = "2023-04-21 15:23:03 +0000";
layers = (
{
layerId = m01;
shapes = (
{
closed = 1;
nodes = (
(488,99,o),
(468,58,o),
(431,44,cs),
(388,27,o),
(338,50,o),
(325,102,cs),
(308,156,o),
(292,210,o),
(275,263,cs),
(275,264,o),
(275,264,o),
(275,264,cs),
(333,329,o),
(392,395,o),
(450,460,c),
(428,480,l),
(375,420,o),
(321,359,o),
(267,299,cs),
(266,298,o),
(264,297,o),
(264,299,cs),
(226,426,l),
(211,486,o),
(149,522,o),
(90,506,cs),
(30,489,o),
(-4,424,o),
(16,364,c),
(44,374,l),
(28,420,o),
(52,465,o),
(98,478,cs),
(143,490,o),
(186,466,o),
(198,418,c),
(213,369,o),
(228,321,o),
(243,272,cs),
(243,271,o),
(243,272,o),
(243,271,cs),
(167,185,o),
(90,99,o),
(14,13,c),
(36,-7,l),
(108,74,o),
(179,156,o),
(251,237,cs),
(252,238,o),
(253,238,o),
(254,237,cs),
(268,188,o),
(282,141,o),
(297,94,cs),
(314,28,o),
(386,-6,o),
(441,16,cs),
(491,35,o),
(520,95,o),
(503,152,c),
(475,144,l)
);
}
);
width = 518;
},
{
layerId = m002;
shapes = (
{
closed = 1;
nodes = (
(478,125,o),
(472,50,o),
(434,35,cs),
(390,18,o),
(341,42,o),
(318,100,cs),
(298,152,o),
(295,175,o),
(284,229,cs),
(278,260,o),
(286,280,o),
(295,292,cs),
(343,361,o),
(382,416,o),
(482,471,c),
(424,497,l),
(386,424,o),
(340,366,o),
(291,318,cs),
(273,300,o),
(257,298,o),
(249,325,cs),
(219,424,ls),
(203,478,o),
(148,519,o),
(92,504,cs),
(37,489,o),
(-6,396,o),
(9,341,c),
(44,352,l),
(32,400,o),
(49,480,o),
(96,494,cs),
(145,507,o),
(187,472,o),
(205,420,cs),
(222,372,o),
(230,338,o),
(241,289,cs),
(245,271,o),
(232,257,o),
(221,242,cs),
(160,155,o),
(84,98,o),
(15,26,c),
(48,-4,l),
(93,71,o),
(137,148,o),
(233,222,cs),
(244,230,o),
(251,233,o),
(259,214,cs),
(277,172,o),
(290,136,o),
(309,96,cs),
(338,33,o),
(386,5,o),
(438,26,cs),
(484,43,o),
(526,129,o),
(514,181,c),
(467,171,l)
);
}
);
width = 518;
}
);
unicode = 120;
},
{
glyphname = y;
lastChange = "2023-04-21 15:29:06 +0000";
layers = (
{
guides = (
{
pos = (213,497);
}
);
layerId = m01;
shapes = (
{
ref = one_side_of_u;
},
{
closed = 1;
nodes = (
(2,-42,o),
(102,-3,o),
(240,-21,cs),
(242,-21,o),
(244,-22,o),
(243,-22,c),
(202,-128,o),
(160,-235,o),
(120,-342,cs),
(119,-343,o),
(118,-343,o),
(118,-343,cs),
(13,-257,o),
(-44,-157,o),
(-21,-97,cs)
);
},
{
closed = 1;
nodes = (
(422,433,o),
(308,145,o),
(255,9,c),
(255,9,o),
(255,8,o),
(254,8,cs),
(99,29,o),
(-21,-17,o),
(-49,-85,cs),
(-80,-166,o),
(-1,-291,o),
(121,-384,cs),
(127,-389,o),
(135,-387,o),
(138,-379,cs),
(183,-261,o),
(228,-144,o),
(274,-27,c),
(274,-27,o),
(274,-26,o),
(275,-26,cs),
(318,-34,o),
(362,-47,o),
(410,-67,c),
(422,-39,l),
(375,-19,o),
(330,-6,o),
(286,3,c),
(286,3,o),
(286,4,o),
(286,4,c),
(462,453,ls),
(462,453,o),
(451,455,o),
(424,470,c)
);
}
);
width = 600;
},
{
layerId = m002;
shapes = (
{
ref = one_side_of_u;
},
{
closed = 1;
nodes = (
(-34,-96,o),
(40,-34,o),
(148,-29,cs),
(207,-26,o),
(235,-41,o),
(219,-102,cs),
(211,-131,o),
(200,-156,o),
(145,-296,cs),
(130,-335,o),
(95,-352,o),
(62,-324,cs),
(-34,-243,o),
(-77,-207,o),
(-54,-146,cs)
);
},
{
closed = 1;
nodes = (
(377,371,o),
(349,224,o),
(310,123,cs),
(301,100,o),
(255,-19,o),
(217,-16,cs),
(71,-4,o),
(-34,-75,o),
(-61,-140,cs),
(-92,-221,o),
(-26,-278,o),
(96,-371,cs),
(112,-385,o),
(130,-372,o),
(134,-361,cs),
(176,-251,o),
(196,-205,o),
(239,-96,cs),
(247,-75,o),
(265,-57,o),
(286,-53,cs),
(306,-49,o),
(405,-66,o),
(445,-187,c),
(466,-136,l),
(445,-113,o),
(334,-47,o),
(295,-33,cs),
(265,-23,o),
(280,12,o),
(289,37,cs),
(447,452,l),
(427,461,o),
(411,477,o),
(409,472,cs)
);
}
);
width = 600;
}
);
unicode = 121;
},
{
glyphname = z;
lastChange = "2023-04-21 15:36:25 +0000";
layers = (
{
layerId = m01;
shapes = (
{
closed = 1;
nodes = (
(258,24,o),
(162,23,o),
(65,22,c),
(65,22,o),
(64,23,o),
(65,23,c),
(225,174,o),
(386,324,o),
(547,474,c),
(557,485,o),
(552,500,o),
(536,500,cs),
(428,501,o),
(322,500,o),
(215,501,c),
(215,472,l),
(309,471,o),
(403,471,o),
(497,471,cs),
(498,471,o),
(498,470,o),
(497,470,c),
(16,18,ls),
(5,7,o),
(11,-9,o),
(26,-9,cs),
(135,-8,o),
(247,-7,o),
(355,-5,c),
(355,24,l)
);
}
);
width = 583;
},
{
layerId = m002;
shapes = (
{
closed = 1;
nodes = (
(244,18,o),
(190,14,o),
(114,14,cs),
(77,13,o),
(62,33,o),
(95,64,c),
(239,215,o),
(363,324,o),
(533,476,cs),
(539,482,o),
(535,493,o),
(525,493,cs),
(414,489,o),
(343,465,o),
(220,501,c),
(220,447,l),
(323,466,o),
(373,473,o),
(445,473,cs),
(472,473,o),
(480,450,o),
(459,431,cs),
(25,27,ls),
(13,15,o),
(22,0,o),
(40,0,cs),
(134,1,o),
(227,10,o),
(342,-7,c),
(342,38,l)
);
}
);
width = 600;
}
);
unicode = 122;
},
{
glyphname = one_side_of_u;
lastChange = "2023-04-15 01:12:48 +0000";
layers = (
{
layerId = m01;
shapes = (
{
closed = 1;
nodes = (
(61,360,o),
(113,397,o),
(165,434,cs),
(166,435,o),
(169,434,o),
(168,432,cs),
(134,353,o),
(74,215,o),
(51,131,cs),
(46,112,o),
(38,74,o),
(57,43,cs),
(80,7,o),
(123,2,o),
(138,0,cs),
(184,-5,o),
(220,15,o),
(238,26,cs),
(310,68,o),
(339,142,o),
(348,169,c),
(320,179,l),
(311,152,o),
(286,89,o),
(222,52,cs),
(204,41,o),
(178,27,o),
(142,30,cs),
(127,32,o),
(98,35,o),
(83,59,cs),
(70,80,o),
(76,105,o),
(81,123,cs),
(109,229,o),
(199,425,o),
(218,470,cs),
(226,486,o),
(205,501,o),
(192,490,c),
(125,442,o),
(58,395,o),
(-9,347,c),
(9,323,l)
);
}
);
width = 600;
},
{
layerId = m002;
shapes = (
{
closed = 1;
nodes = (
(25,338,o),
(108,403,o),
(159,440,cs),
(172,449,o),
(181,450,o),
(176,428,cs),
(155,344,o),
(89,212,o),
(57,129,cs),
(50,111,o),
(41,74,o),
(61,47,cs),
(86,14,o),
(124,10,o),
(139,8,cs),
(182,4,o),
(216,22,o),
(234,33,cs),
(302,72,o),
(318,149,o),
(333,174,c),
(328,176,l),
(319,149,o),
(302,84,o),
(224,39,cs),
(206,29,o),
(180,14,o),
(141,18,cs),
(126,20,o),
(99,23,o),
(77,50,cs),
(60,71,o),
(68,107,o),
(73,125,cs),
(101,235,o),
(193,420,o),
(215,473,c),
(217,483,o),
(206,489,o),
(197,483,c),
(156,452,o),
(107,392,o),
(-61,351,c),
(-34,310,l)
);
}
);
width = 600;
}
);
},
{
glyphname = zero;
lastChange = "2023-04-21 04:20:55 +0000";
layers = (
{
layerId = m01;
shapes = (
{
closed = 1;
nodes = (
(626.552,472.825,o),
(611.751,663.65,o),
(506.099,702.573,c),
(401.817,742.512,o),
(258.607,611.546,o),
(181.549,419.416,c),
(103.44,226.199,o),
(118.248,35.392,o),
(222.877,-3.565,c),
(327.15,-43.499,o),
(471.362,87.416,o),
(549.451,280.584,c)
);
},
{
closed = 1;
nodes = (
(447.814,106.544,o),
(318.905,-9.288,o),
(233.123,23.565,c),
(147.69,55.375,o),
(133.735,223.762,o),
(208.451,408.584,c),
(282.212,592.496,o),
(410.129,708.275,o),
(495.901,675.427,c),
(582.313,643.59,o),
(596.267,475.217,o),
(522.549,291.416,c)
);
}
);
width = 600;
},
{
layerId = m002;
shapes = (
{
closed = 1;
nodes = (
(622,473,o),
(609,652,o),
(503,691,c),
(399,731,o),
(258,612,o),
(181,419,c),
(103,226,o),
(123,43,o),
(228,5,c),
(332,-35,o),
(467,87,o),
(545,281,c)
);
},
{
closed = 1;
nodes = (
(448,104,o),
(319,-19,o),
(233,14,c),
(148,46,o),
(130,224,o),
(204,409,c),
(278,592,o),
(413,715,o),
(499,682,c),
(585,651,o),
(597,473,o),
(523,289,c)
);
}
);
width = 600;
}
);
unicode = 48;
},
{
glyphname = one;
lastChange = "2023-04-21 03:20:27 +0000";
layers = (
{
layerId = m01;
shapes = (
{
closed = 1;
nodes = (
(245,550,o),
(322,603,o),
(398,655,cs),
(400,657,o),
(401,655,o),
(401,653,cs),
(315,440,o),
(230,226,o),
(146,12,c),
(174,2,l),
(264,231,o),
(355,460,o),
(446,689,cs),
(453,705,o),
(436,719,o),
(421,709,cs),
(331,646,o),
(242,584,o),
(152,521,c),
(170,497,l)
);
}
);
width = 600;
},
{
layerId = m002;
shapes = (
{
closed = 1;
nodes = (
(246,573,o),
(306,609,o),
(359,636,cs),
(389,652,o),
(397,648,o),
(381,602,cs),
(352,520,o),
(255,224,o),
(137,20,c),
(184,0,l),
(251,246,o),
(365,518,o),
(446,689,cs),
(453,705,o),
(436,721,o),
(421,709,cs),
(332,640,o),
(282,581,o),
(144,537,c),
(172,497,l)
);
}
);
width = 600;
}
);
unicode = 49;
},
{
glyphname = two;
lastChange = "2023-04-21 03:16:00 +0000";
layers = (
{
layerId = m01;
shapes = (
{
closed = 1;
nodes = (
(280,22,o),
(164,23,o),
(48,24,c),
(48,24,o),
(47,24,o),
(47,25,cs),
(49,65,o),
(58,131,o),
(105,199,cs),
(171,292,o),
(252,331,o),
(370,331,cs),
(502,331,o),
(606,421,o),
(585,550,cs),
(570,647,o),
(510,706,o),
(419,710,cs),
(350,714,o),
(272,673,o),
(228,588,c),
(254,574,l),
(293,650,o),
(357,684,o),
(417,682,cs),
(496,678,o),
(543,631,o),
(557,546,cs),
(574,435,o),
(489,360,o),
(370,360,cs),
(245,360,o),
(152,316,o),
(81,215,cs),
(31,141,o),
(20,68,o),
(18,26,cs),
(17,9,o),
(31,-4,o),
(48,-4,cs),
(164,-5,o),
(280,-6,o),
(396,-7,c),
(396,21,l)
);
}
);
width = 600;
},
{
guides = (
{
pos = (130,564);
}
);
layerId = m002;
shapes = (
{
closed = 1;
nodes = (
(288,8,o),
(165,20,o),
(108,23,cs),
(74,25,o),
(40,46,o),
(46,86,cs),
(53,123,o),
(57,162,o),
(89,209,cs),
(155,302,o),
(253,326,o),
(370,329,cs),
(495,332,o),
(612,418,o),
(591,547,cs),
(576,644,o),
(510,705,o),
(419,705,cs),
(290,705,o),
(232,597,o),
(183,517,c),
(223,498,l),
(262,574,o),
(315,700,o),
(423,694,cs),
(516,689,o),
(567,635,o),
(581,545,cs),
(599,434,o),
(489,356,o),
(370,356,cs),
(246,356,o),
(152,315,o),
(81,215,cs),
(35,147,o),
(22,80,o),
(19,37,cs),
(17,13,o),
(36,-7,o),
(59,-4,cs),
(167,10,o),
(341,21,o),
(446,-16,c),
(446,42,l)
);
}
);
width = 600;
}
);
unicode = 50;
},
{
glyphname = three;
lastChange = "2023-04-21 03:28:13 +0000";
layers = (
{
layerId = m01;
shapes = (
{
closed = 1;
nodes = (
(403,225,o),
(522,347,o),
(494,386,cs),
(470,418,o),
(359,365,o),
(153,244,cs),
(152,243,o),
(150,245,o),
(151,246,cs),
(220,390,o),
(290,534,o),
(359,678,cs),
(367,695,o),
(346,712,o),
(332,701,cs),
(247,638,o),
(163,574,o),
(78,512,c),
(96,488,l),
(167,541,o),
(237,594,o),
(307,647,c),
(309,648,o),
(311,646,o),
(310,644,cs),
(241,502,o),
(173,359,o),
(104,217,cs),
(96,201,o),
(115,187,o),
(131,197,cs),
(353,329,o),
(462,381,o),
(470,368,cs),
(481,354,o),
(381,244,o),
(145,31,c),
(165,9,l)
);
}
);
width = 600;
},
{
layerId = m002;
shapes = (
{
closed = 1;
nodes = (
(405,219,o),
(519,341,o),
(491,380,cs),
(470,408,o),
(358,358,o),
(200,266,cs),
(148,236,o),
(143,242,o),
(165,300,cs),
(208,415,o),
(272,498,o),
(359,678,cs),
(367,695,o),
(351,710,o),
(337,695,cs),
(261,612,o),
(191,554,o),
(72,519,c),
(101,482,l),
(151,523,o),
(255,601,o),
(283,624,cs),
(335,666,o),
(318,635,o),
(313,624,cs),
(279,550,o),
(215,435,o),
(120,237,cs),
(112,221,o),
(131,207,o),
(147,217,cs),
(394,364,o),
(452,399,o),
(473,365,cs),
(493,339,o),
(417,206,o),
(137,40,c),
(167,3,l)
);
}
);
width = 600;
}
);
unicode = 51;
},
{
glyphname = four;
lastChange = "2023-04-21 03:40:29 +0000";
layers = (
{
layerId = m01;
shapes = (
{
closed = 1;
nodes = (
(434,379,o),
(413,368,o),
(392,359,cs),
(390,358,o),
(390,360,o),
(390,361,cs),
(436,470,o),
(483,580,o),
(529,689,c),
(503,700,l),
(451,579,o),
(400,459,o),
(348,338,cs),
(348,337,o),
(346,336,o),
(346,336,cs),
(271,302,o),
(199,268,o),
(125,233,cs),
(124,232,o),
(122,234,o),
(123,235,cs),
(169,335,ls),
(223,452,o),
(283,567,o),
(338,682,cs),
(346,699,o),
(326,715,o),
(311,705,cs),
(234,648,o),
(156,591,o),
(78,535,c),
(96,511,l),
(159,557,o),
(224,605,o),
(288,651,cs),
(289,653,o),
(291,651,o),
(291,649,cs),
(243,548,o),
(191,448,o),
(143,347,cs),
(78,209,ls),
(71,194,o),
(85,182,o),
(99,189,cs),
(174,225,o),
(250,260,o),
(327,296,cs),
(329,297,o),
(329,295,o),
(329,294,cs),
(291,204,o),
(253,115,o),
(215,25,c),
(241,13,l),
(284,114,o),
(327,214,o),
(370,315,cs),
(370,316,o),
(373,318,o),
(373,318,cs),
(405,333,o),
(436,347,o),
(468,363,c),
(456,389,l)
);
}
);
width = 600;
},
{
layerId = m002;
shapes = (
{
closed = 1;
nodes = (
(475,387,o),
(421,366,o),
(418,364,cs),
(395,354,o),
(392,375,o),
(395,390,cs),
(409,459,o),
(429,521,o),
(537,687,c),
(494,702,l),
(443,578,o),
(409,463,o),
(359,351,cs),
(353,338,o),
(348,329,o),
(337,324,cs),
(273,295,o),
(218,273,o),
(157,248,cs),
(144,243,o),
(131,254,o),
(137,268,cs),
(166,335,ls),
(218,455,o),
(283,567,o),
(338,682,cs),
(346,699,o),
(326,715,o),
(311,705,cs),
(238,651,o),
(176,570,o),
(78,535,c),
(100,506,l),
(156,561,o),
(199,602,o),
(255,635,cs),
(269,643,o),
(282,631,o),
(276,616,cs),
(237,526,o),
(206,433,o),
(157,347,cs),
(78,209,ls),
(70,194,o),
(85,182,o),
(99,189,cs),
(163,220,o),
(241,265,o),
(308,296,cs),
(330,306,o),
(338,287,o),
(335,276,cs),
(315,189,o),
(260,76,o),
(204,12,c),
(237,-3,l),
(275,62,o),
(321,205,o),
(363,301,cs),
(366,308,o),
(374,325,o),
(386,333,cs),
(416,353,o),
(480,383,o),
(517,393,c),
(505,419,l)
);
}
);
width = 600;
}
);
unicode = 52;
},
{
glyphname = five;
lastChange = "2023-04-21 03:46:06 +0000";
layers = (
{
layerId = m01;
shapes = (
{
closed = 1;
nodes = (
(429,715,o),
(333,715,o),
(236,715,cs),
(236,715,o),
(235,715,o),
(235,714,c),
(189,579,o),
(143,445,o),
(97,310,c),
(92,294,o),
(105,284,o),
(118,294,cs),
(219,364,o),
(389,382,o),
(434,279,cs),
(472,202,o),
(426,89,o),
(336,44,cs),
(237,-7,o),
(127,19,o),
(86,103,c),
(60,91,l),
(108,-8,o),
(239,-38,o),
(350,18,cs),
(450,68,o),
(505,202,o),
(460,291,c),
(414,398,o),
(252,406,o),
(142,345,cs),
(140,344,o),
(139,346,o),
(139,347,c),
(178,460,o),
(216,572,o),
(255,685,c),
(255,685,o),
(256,686,o),
(256,686,c),
(346,686,o),
(436,686,o),
(526,686,c),
(526,715,l)
);
}
);
width = 600;
},
{
layerId = m002;
shapes = (
{
closed = 1;
nodes = (
(390,701,o),
(336,710,o),
(248,715,cs),
(240,715,o),
(229,704,o),
(227,697,cs),
(178,548,o),
(175,479,o),
(113,329,cs),
(106,313,o),
(121,303,o),
(134,313,cs),
(282,416,o),
(399,378,o),
(441,281,cs),
(479,204,o),
(435,72,o),
(345,27,cs),
(241,-27,o),
(116,6,o),
(89,104,c),
(45,86,l),
(93,-13,o),
(239,-38,o),
(350,18,cs),
(450,68,o),
(502,201,o),
(460,291,cs),
(423,368,o),
(303,407,o),
(199,371,cs),
(151,354,o),
(151,363,o),
(160,407,cs),
(188,538,o),
(214,631,o),
(251,674,cs),
(257,680,o),
(260,684,o),
(268,686,cs),
(330,700,o),
(439,710,o),
(526,668,c),
(526,715,l)
);
}
);
width = 600;
}
);
unicode = 53;
},
{
glyphname = six;
lastChange = "2023-04-21 03:55:44 +0000";
layers = (
{
layerId = m01;
shapes = (
{
closed = 1;
nodes = (
(394,702,o),
(299,644,o),
(242,540,cs),
(174,417,o),
(94,179,o),
(151,54,c),
(162,25,o),
(180,3,o),
(206,-8,cs),
(289,-41,o),
(398,42,o),
(457,176,cs),
(517,310,o),
(502,448,o),
(422,483,cs),
(357,512,o),
(279,465,o),
(212,381,cs),
(208,376,o),
(202,371,o),
(206,383,cs),
(224,437,o),
(247,488,o),
(268,526,cs),
(314,611,o),
(407,677,o),
(480,708,c),
(469,734,l)
);
},
{
closed = 1;
nodes = (
(150,40,o),
(154,212,o),
(187,290,cs),
(226,381,o),
(346,485,o),
(410,458,cs),
(474,428,o),
(487,313,o),
(431,188,cs),
(364,37,o),
(259,3,o),
(216,17,cs)
);
}
);
width = 600;
},
{
layerId = m002;
shapes = (
{
closed = 1;
nodes = (
(409,726,o),
(325,668,o),
(251,536,cs),
(182,413,o),
(102,179,o),
(157,57,cs),
(168,29,o),
(187,12,o),
(212,1,cs),
(291,-30,o),
(401,46,o),
(460,179,cs),
(519,311,o),
(492,440,o),
(416,474,cs),
(362,498,o),
(297,462,o),
(231,393,cs),
(213,375,o),
(200,381,o),
(210,405,cs),
(226,451,o),
(242,500,o),
(260,531,cs),
(338,664,o),
(448,711,o),
(526,722,c),
(507,767,l)
);
},
{
closed = 1;
nodes = (
(141,36,o),
(145,206,o),
(184,288,cs),
(227,379,o),
(344,494,o),
(413,464,cs),
(481,432,o),
(495,313,o),
(437,185,cs),
(368,27,o),
(266,-7,o),
(214,10,cs)
);
}
);
width = 600;
}
);
unicode = 54;
},
{
glyphname = seven;
lastChange = "2023-04-21 04:08:06 +0000";
layers = (
{
layerId = m01;
shapes = (
{
closed = 1;
nodes = (
(216,534,o),
(297,590,o),
(378,646,cs),
(379,647,o),
(381,646,o),
(380,644,cs),
(352,562,o),
(315,450,o),
(279,341,cs),
(279,341,o),
(278,340,o),
(278,340,cs),
(241,339,o),
(204,339,o),
(167,338,c),
(168,309,l),
(201,310,o),
(234,310,o),
(267,311,cs),
(268,311,o),
(269,310,o),
(268,309,cs),
(228,184,o),
(189,67,o),
(168,5,c),
(195,-5,l),
(216,58,o),
(256,182,o),
(299,310,cs),
(299,310,o),
(300,311,o),
(300,311,cs),
(341,312,o),
(381,312,o),
(422,313,c),
(421,342,l),
(384,341,o),
(347,341,o),
(310,340,cs),
(309,340,o),
(308,341,o),
(309,342,cs),
(350,467,o),
(393,594,o),
(422,675,cs),
(428,691,o),
(411,703,o),
(397,694,cs),
(304,630,o),
(212,566,o),
(119,502,c),
(135,478,l)
);
}
);
width = 600;
},
{
layerId = m002;
shapes = (
{
closed = 1;
nodes = (
(257,579,o),
(327,624,o),
(380,655,cs),
(386,659,o),
(392,655,o),
(390,646,cs),
(380,594,o),
(338,467,o),
(294,364,cs),
(285,343,o),
(270,337,o),
(252,335,cs),
(197,329,o),
(147,328,o),
(113,343,c),
(113,300,l),
(170,331,o),
(245,321,o),
(253,317,cs),
(269,309,o),
(269,297,o),
(267,283,cs),
(256,217,o),
(222,107,o),
(155,9,c),
(204,-5,l),
(228,93,o),
(256,217,o),
(284,279,cs),
(290,292,o),
(299,306,o),
(329,314,cs),
(338,316,o),
(433,334,o),
(469,304,c),
(469,344,l),
(420,326,o),
(356,329,o),
(325,337,cs),
(312,340,o),
(311,349,o),
(315,362,cs),
(344,467,o),
(386,595,o),
(426,676,cs),
(435,695,o),
(412,705,o),
(397,693,cs),
(303,615,o),
(245,562,o),
(119,516,c),
(148,474,l)
);
}
);
width = 600;
}
);
unicode = 55;
},
{
glyphname = eight;
lastChange = "2023-04-21 04:15:33 +0000";
layers = (
{
layerId = m01;
shapes = (
{
closed = 1;
nodes = (
(65,185,o),
(25,31,o),
(83,-5,c),
(138,-44,o),
(264,46,o),
(332,147,cs),
(414,267,o),
(442,395,o),
(381,437,cs),
(365,448,o),
(337,443,o),
(310,434,cs),
(308,433,o),
(307,435,o),
(308,436,cs),
(324,450,o),
(339,468,o),
(349,483,cs),
(412,571,o),
(430,675,o),
(376,710,c),
(329,745,o),
(228,678,o),
(174,605,cs),
(121,529,o),
(96,410,o),
(147,375,cs),
(161,366,o),
(184,366,o),
(206,374,cs),
(208,375,o),
(210,371,o),
(209,370,cs),
(181,344,o),
(151,312,o),
(132,282,cs)
);
},
{
closed = 1;
nodes = (
(61,43,o),
(92,174,o),
(156,266,cs),
(218,361,o),
(330,436,o),
(365,413,cs),
(408,384,o),
(385,277,o),
(308,163,cs),
(244,68,o),
(135,-6,o),
(99,19,cs)
);
},
{
closed = 1;
nodes = (
(130,422,o),
(150,519,o),
(198,589,cs),
(247,656,o),
(331,709,o),
(360,686,c),
(396,664,o),
(383,581,o),
(325,499,cs),
(277,430,o),
(193,379,o),
(163,399,cs)
);
}
);
width = 600;
},
{
layerId = m002;
shapes = (
{
closed = 1;
nodes = (
(67,185,o),
(33,34,o),
(87,1,c),
(138,-35,o),
(266,50,o),
(333,150,cs),
(414,269,o),
(439,391,o),
(382,430,cs),
(372,437,o),
(352,438,o),
(334,433,cs),
(290,425,o),
(290,427,o),
(320,457,cs),
(329,467,o),
(336,477,o),
(343,487,cs),
(405,574,o),
(422,672,o),
(372,704,c),
(329,736,o),
(233,673,o),
(180,601,cs),
(128,526,o),
(104,415,o),
(151,383,cs),
(159,377,o),
(175,371,o),
(190,373,cs),
(209,375,o),
(240,398,o),
(201,359,cs),
(177,336,o),
(150,306,o),
(134,281,cs)
);
},
{
closed = 1;
nodes = (
(51,36,o),
(85,180,o),
(150,273,cs),
(213,369,o),
(333,450,o),
(374,424,cs),
(422,391,o),
(392,277,o),
(314,162,cs),
(249,66,o),
(137,-21,o),
(95,8,cs)
);
},
{
closed = 1;
nodes = (
(121,415,o),
(148,521,o),
(197,592,cs),
(247,660,o),
(333,722,o),
(367,695,c),
(408,669,o),
(385,578,o),
(326,495,cs),
(277,425,o),
(194,365,o),
(159,388,cs)
);
}
);
width = 600;
}
);
unicode = 56;
},
{
glyphname = nine;
lastChange = "2023-04-21 04:20:23 +0000";
layers = (
{
layerId = m01;
shapes = (
{
closed = 1;
nodes = (
(114,574,o),
(73,459,o),
(106,412,cs),
(144,363,o),
(249,397,o),
(311,459,cs),
(317,465,ls),
(318,466,o),
(321,465,o),
(320,463,cs),
(272,312,o),
(224,159,o),
(175,7,c),
(203,-1,l),
(276,227,o),
(348,454,o),
(421,683,c),
(393,691,l),
(391,685,o),
(390,679,o),
(387,673,cs),
(387,672,o),
(385,672,o),
(385,673,cs),
(383,676,o),
(381,679,o),
(380,682,c),
(344,731,o),
(238,698,o),
(177,635,cs)
);
},
{
closed = 1;
nodes = (
(106,462,o),
(141,559,o),
(197,615,cs),
(252,670,o),
(334,695,o),
(356,664,cs),
(369,648,o),
(370,623,o),
(358,581,cs),
(346,548,o),
(323,512,o),
(291,479,cs),
(235,424,o),
(153,399,o),
(130,430,cs)
);
}
);
width = 600;
},
{
layerId = m002;
shapes = (
{
closed = 1;
nodes = (
(118,574,o),
(81,460,o),
(112,416,cs),
(147,371,o),
(245,403,o),
(306,464,cs),
(314,472,ls),
(321,479,o),
(331,473,o),
(327,465,cs),
(275,298,o),
(250,172,o),
(158,19,c),
(211,1,l),
(264,231,o),
(339,483,o),
(428,700,c),
(393,700,l),
(393,682,o),
(394,676,o),
(391,662,cs),
(389,654,o),
(385,658,o),
(381,665,cs),
(380,667,o),
(378,672,o),
(374,678,c),
(341,723,o),
(240,696,o),
(180,634,cs)
);
},
{
closed = 1;
nodes = (
(94,458,o),
(139,564,o),
(197,622,cs),
(253,678,o),
(342,705,o),
(368,668,cs),
(382,650,o),
(378,630,o),
(365,586,cs),
(354,552,o),
(325,507,o),
(294,476,cs),
(237,420,o),
(148,385,o),
(120,422,cs)
);
}
);
width = 600;
}
);
unicode = 57;
},
{
glyphname = dotaccentcomb;
lastChange = "2023-04-14 19:11:21 +0000";
layers = (
{
layerId = m01;
shapes = (
{
closed = 1;
nodes = (
(218,418,o),
(198,401,o),
(184,407,cs),
(170,412,o),
(168,439,o),
(179,465,cs),
(190,492,o),
(211,509,o),
(224,503,cs),
(238,497,o),
(241,470,o),
(229,445,cs)
);
}
);
width = 600;
},
{
layerId = m002;
shapes = (
{
closed = 1;
nodes = (
(239,471,o),
(221,454,o),
(215,460,cs),
(205,465,o),
(211,493,o),
(228,520,cs),
(241,549,o),
(261,566,o),
(268,561,cs),
(279,554,o),
(271,526,o),
(257,500,cs)
);
}
);
width = 600;
}
);
unicode = 775;
},
{
glyphname = connectiontri;
lastChange = "2023-04-15 17:26:15 +0000";
layers = (
{
layerId = m01;
shapes = (
{
closed = 1;
nodes = (
(252,39,o),
(283,84,o),
(267,32,c),
(286,70,l),
(300,102,l),
(282,82,o),
(252,48,o),
(245,43,c)
);
}
);
width = 600;
},
{
layerId = m002;
shapes = (
{
closed = 1;
nodes = (
(254,42,o),
(267,61,o),
(256,23,c),
(276,61,l),
(291,94,l),
(272,73,o),
(239,37,o),
(233,33,c)
);
}
);
width = 600;
}
);
},
{
glyphname = other_side_u;
lastChange = "2023-04-15 17:24:08 +0000";
layers = (
{
layerId = m01;
shapes = (
{
closed = 1;
nodes = (
(383,324,o),
(319,171,o),
(249,7,cs),
(242,-9,o),
(267,-24,o),
(280,-13,c),
(344,30,o),
(395,63,o),
(459,106,c),
(441,132,l),
(392,98,o),
(343,65,o),
(294,31,cs),
(293,30,o),
(291,32,o),
(292,33,cs),
(355,181,o),
(418,328,o),
(481,476,c),
(472,480,o),
(462,484,o),
(453,488,c)
);
}
